<svg xmlns="http://www.w3.org/2000/svg" fill="none" viewBox="0 0 100 100" role='presentation'>
  <title>Cobalt logo</title>
  <path fill="#0047AB" d="M68.56 79.452a.771.771 0 01-.274 1.043l-1.505.886a.729.729 0 01-1.006-.275l-2.923-5.157a.722.722 0 00-.945-.299 27.513 27.513 0 01-9.739 2.679.742.742 0 00-.675.744v5.93c0 .415-.33.751-.738.751H49.02a.759.759 0 01-.752-.765v-5.916a.736.736 0 00-.672-.74 27.538 27.538 0 01-9.751-2.645.734.734 0 00-.96.305l-2.89 5.101a.742.742 0 01-1.025.28l-1.504-.885a.759.759 0 01-.27-1.026l2.896-5.112a.763.763 0 00-.22-.997 28.538 28.538 0 01-7.148-7.271.724.724 0 00-.968-.22l-5.008 2.945a.738.738 0 01-1.018-.278l-.859-1.516a.782.782 0 01.278-1.058l4.992-2.937a.75.75 0 00.294-.963 28.88 28.88 0 01-2.62-9.947.74.74 0 00-.732-.69h-5.766a.759.759 0 01-.751-.766v-1.77c0-.414.33-.75.736-.75h5.77c.39 0 .713-.305.744-.7a28.878 28.878 0 012.616-9.932.757.757 0 00-.296-.972l-4.994-2.938a.775.775 0 01-.275-1.047l.862-1.52a.74.74 0 011.022-.28l5.006 2.946a.722.722 0 00.965-.22 28.542 28.542 0 017.155-7.276.756.756 0 00.218-.989l-2.899-5.116a.76.76 0 01.27-1.027l1.505-.885a.74.74 0 011.023.279l2.895 5.11c.191.336.603.467.949.301a27.533 27.533 0 019.753-2.649.743.743 0 00.677-.745V14.57c0-.427.34-.774.76-.774h1.724c.41 0 .741.339.741.756v5.926c0 .39.294.713.675.744 3.46.29 6.738 1.223 9.729 2.674.35.17.767.038.96-.303l2.916-5.145a.733.733 0 011.01-.276l1.5.882c.36.212.484.681.276 1.048l-2.915 5.142a.764.764 0 00.22.998 28.552 28.552 0 014.015 3.438 2.431 2.431 0 003.338.176l9.949-8.477c1.035-.883 1.108-2.507.21-3.54C73.749 7.452 60.704 2.27 47.139 3.082 24.85 4.37 6.009 22.203 4.111 46.183 2.275 74.027 23.446 96.272 49.842 96.5c13.329-.155 25.099-5.79 33.203-14.502 1.109-1.185.994-3.082-.239-4.133l-9.81-8.359a2.116 2.116 0 00-2.916.154 28.55 28.55 0 01-4.224 3.654.752.752 0 00-.217.983l2.922 5.154z"/>
  <path fill="#003262" d="M50.105 54.169c-2.642.136-4.812-2.075-4.678-4.766.114-2.305 1.952-4.178 4.214-4.295 2.642-.136 4.813 2.075 4.679 4.767-.115 2.304-1.953 4.177-4.215 4.294zm3.332-17.941c-7.394-1.912-14.156 2.34-16.395 8.774a.783.783 0 00.341.929l5.193 3.055a.76.76 0 010 1.305l-5.199 3.058a.774.774 0 00-.338.918c1.87 5.384 6.908 9.243 12.834 9.243 8.71 0 15.51-8.333 13.139-17.6-1.082-4.23-5.417-8.607-9.575-9.682z"/>
</svg>